HIERARCHY
ROOT Root
{
	OFFSET 0.00000 0.00000 0.00000
	CHANNELS 6 Xposition Yposition Zposition Zrotation Xrotation Yrotation
	JOINT Hips
	{
		OFFSET 0 0 0	
		CHANNELS 3 Zrotation Xrotation Yrotation
		JOINT Spine
		{
			OFFSET 0 4 0	
			CHANNELS 3 Zrotation Xrotation Yrotation
			JOINT Spine1
			{
				OFFSET 0 19.4 0	
				CHANNELS 3 Zrotation Xrotation Yrotation
				JOINT Spine2
				{
					OFFSET 0 16.6 0	
					CHANNELS 3 Zrotation Xrotation Yrotation
					JOINT LeftCollar
					{
						OFFSET 0 10 0	
						CHANNELS 3 Zrotation Xrotation Yrotation
						JOINT LeftArm
						{
							OFFSET 15.6 -2 3	
							CHANNELS 3 Zrotation Xrotation Yrotation
							JOINT LeftForeArm
							{
								OFFSET 3.5 -27 -1	
								CHANNELS 3 Zrotation Xrotation Yrotation
								JOINT LeftHand
								{
									OFFSET 1 -27 1	
									CHANNELS 3 Zrotation Xrotation Yrotation
									End Site
									{
										OFFSET 0 -15 0
									}
								}
							}
						}
					}
					JOINT RightCollar
					{
						OFFSET 0 10 0	
						CHANNELS 3 Zrotation Xrotation Yrotation
						JOINT RightArm
						{
							OFFSET -15.6 -2 3	
							CHANNELS 3 Zrotation Xrotation Yrotation
							JOINT RightForeArm
							{
								OFFSET -3.5 -27 -1	
								CHANNELS 3 Zrotation Xrotation Yrotation
								JOINT RightHand
								{
									OFFSET -1 -27 1	
									CHANNELS 3 Zrotation Xrotation Yrotation
									End Site
									{
										OFFSET 0 -15 0
									}
								}
							}
						}
					}
					JOINT Neck
					{
						OFFSET 0 10 0	
						CHANNELS 3 Zrotation Xrotation Yrotation
						JOINT Head
						{
							OFFSET 0 12.7 3	
							CHANNELS 3 Zrotation Xrotation Yrotation
							End Site
							{
								OFFSET 0 12.7 3
							}
						}
					}
				}
			}
		}
	}
	JOINT LeftHip
	{
		OFFSET 0 0 0	
		CHANNELS 3 Zrotation Xrotation Yrotation
		JOINT LeftUpLeg
		{
			OFFSET 8.8 -6 0	
			CHANNELS 3 Zrotation Xrotation Yrotation
			JOINT LeftLeg
			{
				OFFSET 0 -39 2	
				CHANNELS 3 Zrotation Xrotation Yrotation
				JOINT LeftFoot
				{
					OFFSET 0 -43 -2	
					CHANNELS 3 Zrotation Xrotation Yrotation
					JOINT LeftFootFront
					{
						OFFSET 0 -7 8.5	
						CHANNELS 3 Zrotation Xrotation Yrotation
						End Site
						{
							OFFSET 0 -0.5 9
						}
					}
				}
				JOINT LeftHeel
				{
					OFFSET 0 -43 -2	
					CHANNELS 3 Zrotation Xrotation Yrotation
					End Site
					{
						OFFSET 0 -7.5 -5
					}
				}
			}
		}
	}
	JOINT RightHip
	{
		OFFSET 0 0 0	
		CHANNELS 3 Zrotation Xrotation Yrotation
		JOINT RightUpLeg
		{
			OFFSET -8.8 -6 0	
			CHANNELS 3 Zrotation Xrotation Yrotation
			JOINT RightLeg
			{
				OFFSET 0 -39 2	
				CHANNELS 3 Zrotation Xrotation Yrotation
				JOINT RightFoot
				{
					OFFSET 0 -43 -2	
					CHANNELS 3 Zrotation Xrotation Yrotation
					JOINT RightFootFront
					{
						OFFSET 0 -7 8.5	
						CHANNELS 3 Zrotation Xrotation Yrotation
						End Site
						{
							OFFSET 0 -0.5 9
						}
					}
				}
				JOINT RightHeel
				{
					OFFSET 0 -43 -2	
					CHANNELS 3 Zrotation Xrotation Yrotation
					End Site
					{
						OFFSET 0 -7.5 -5
					}
				}
			}
		}
	}
}
MOTION
Frames: 25
Frame Time: 0.008
0 96.351 0 -0 0 -0 1.3398 7.2135 -0.071943 -5.5464 -13.48 0.85855 -5.5464 -13.48 0.85855 -4.6576 -11.319 0.80838 -0 0 -0 93.621 -31.543 50.802 10.002 -5.9949 13.043 -0 0 -0 -0 0 -0 -48.109 -38.468 -49.772 -8.9475 -1.6404 12.782 -0 0 -0 7.9225 19.864 -4.554 7.9225 19.864 -4.554 1.3398 7.2135 -0.071943 4.866 -6.0336 -1.2023 -7.7019 8.3979 -3.7752 -0 0 -0 -0 0 -0 -0 0 -0 1.3398 7.2135 -0.071943 -1.2622 -5.3467 -4.7169 1.155 6.5074 -1.2335 -0 0 -0 -0 0 -0 -0 0 -0 
0 96.351 0 -0 0 -0 1.2212 7.136 -0.10057 -5.6597 -13.454 0.88001 -5.6597 -13.454 0.88001 -4.7528 -11.296 0.828 -0 0 -0 93.661 -31.671 51.21 9.8681 -6.1052 12.702 -0 0 -0 -0 0 -0 -47.595 -37.983 -49.73 -8.9227 -1.5634 12.873 -0 0 -0 8.2094 19.765 -4.7256 8.2094 19.765 -4.7256 1.2212 7.136 -0.10057 4.8943 -5.8189 -0.6875 -7.3856 8.0389 -4.3964 -0 0 -0 -0 0 -0 -0 0 -0 1.2212 7.136 -0.10057 -1.1774 -5.2604 -4.746 1.151 6.365 -1.283 -0 0 -0 -0 0 -0 -0 0 -0 
0 96.351 0 -0 0 -0 1.1117 7.0594 -0.12012 -5.7936 -13.428 0.89648 -5.7936 -13.428 0.89648 -4.8653 -11.274 0.84378 -0 0 -0 93.712 -31.781 51.569 9.7247 -6.2109 12.405 -0 0 -0 -0 0 -0 -47.036 -37.485 -49.761 -8.887 -1.5052 13.002 -0 0 -0 8.5274 19.669 -4.9095 8.5274 19.669 -4.9095 1.1117 7.0594 -0.12012 4.8995 -5.6098 -0.26424 -7.0698 7.6823 -4.8689 -0 0 -0 -0 0 -0 -0 0 -0 1.1117 7.0594 -0.12012 -1.0959 -5.1715 -4.799 1.151 6.2191 -1.3234 -0 0 -0 -0 0 -0 -0 0 -0 
0 96.351 0 -0 0 -0 1.0136 6.9868 -0.1304 -5.9479 -13.404 0.90644 -5.9479 -13.404 0.90644 -4.9946 -11.254 0.85443 -0 0 -0 93.775 -31.868 51.861 9.5754 -6.3077 12.171 -0 0 -0 -0 0 -0 -46.433 -36.979 -49.863 -8.8396 -1.4661 13.169 -0 0 -0 8.8724 19.573 -5.1033 8.8724 19.573 -5.1033 1.0136 6.9868 -0.1304 4.8882 -5.411 0.065548 -6.7658 7.3282 -5.2122 -0 0 -0 -0 0 -0 -0 0 -0 1.0136 6.9868 -0.1304 -1.0203 -5.084 -4.8744 1.1548 6.0719 -1.3505 -0 0 -0 -0 0 -0 -0 0 -0 
0 96.351 0 -0 0 -0 0.9281 6.9213 -0.131 -6.121 -13.381 0.90845 -6.121 -13.381 0.90846 -5.1396 -11.235 0.85873 -0 0 -0 93.845 -31.929 52.077 9.4232 -6.3927 12.014 -0 0 -0 -0 0 -0 -45.791 -36.471 -50.03 -8.7801 -1.4454 13.375 -0 0 -0 9.2396 19.477 -5.3049 9.2396 19.477 -5.3049 0.9281 6.9213 -0.131 4.8679 -5.2294 0.30307 -6.4834 6.9804 -5.448 -0 0 -0 -0 0 -0 -0 0 -0 0.9281 6.9213 -0.131 -0.95214 -5.0022 -4.9685 1.1621 5.9258 -1.3651 -0 0 -0 -0 0 -0 -0 0 -0 
0 96.351 0 -0 0 -0 0.8552 6.8652 -0.12124 -6.3102 -13.359 0.90131 -6.3102 -13.359 0.90131 -5.2979 -11.216 0.85563 -0 0 -0 93.917 -31.96 52.213 9.2705 -6.465 11.944 -0 0 -0 -0 0 -0 -45.114 -35.963 -50.255 -8.7096 -1.441 13.619 -0 0 -0 9.623 19.379 -5.5122 9.623 19.379 -5.5122 0.8552 6.8652 -0.12124 4.8462 -5.0718 0.45148 -6.2295 6.6446 -5.5967 -0 0 -0 -0 0 -0 -0 0 -0 0.8552 6.8652 -0.12124 -0.89171 -4.9298 -5.076 1.172 5.7828 -1.3726 -0 0 -0 -0 0 -0 -0 0 -0 
0 96.351 0 -0 0 -0 0.79427 6.8186 -0.10038 -6.5125 -13.337 0.88414 -6.5125 -13.338 0.88414 -5.4671 -11.198 0.84432 -0 0 -0 93.987 -31.962 52.274 9.1183 -6.5243 11.968 -0 0 -0 -0 0 -0 -44.41 -35.461 -50.524 -8.6317 -1.45 13.899 -0 0 -0 10.017 19.278 -5.7238 10.017 19.278 -5.7238 0.79427 6.8186 -0.10038 4.8289 -4.9416 0.51494 -6.0078 6.3258 -5.6758 -0 0 -0 -0 0 -0 -0 0 -0 0.79427 6.8186 -0.10038 -0.83869 -4.868 -5.1911 1.1841 5.6446 -1.3815 -0 0 -0 -0 0 -0 -0 0 -0 
0 96.351 0 -0 0 -0 0.74439 6.7792 -0.067908 -6.7245 -13.314 0.85666 -6.7245 -13.314 0.85666 -5.6442 -11.178 0.8245 -0 0 -0 94.051 -31.935 52.274 8.9668 -6.571 12.081 -0 0 -0 -0 0 -0 -43.686 -34.968 -50.825 -8.5524 -1.4686 14.215 -0 0 -0 10.415 19.173 -5.9382 10.415 19.173 -5.9382 0.74439 6.7792 -0.067908 4.819 -4.8379 0.4988 -5.8185 6.0275 -5.6992 -0 0 -0 -0 0 -0 -0 0 -0 0.74439 6.7792 -0.067908 -0.79242 -4.8151 -5.3074 1.198 5.5125 -1.4009 -0 0 -0 -0 0 -0 -0 0 -0 
0 96.351 0 -0 0 -0 0.70438 6.7423 -0.023809 -6.9431 -13.285 0.81927 -6.9431 -13.285 0.81927 -5.8267 -11.154 0.79645 -0 0 -0 94.104 -31.882 52.235 8.8154 -6.6045 12.272 -0 0 -0 -0 0 -0 -42.951 -34.49 -51.144 -8.4797 -1.4921 14.562 -0 0 -0 10.812 19.063 -6.1543 10.812 19.063 -6.1543 0.70438 6.7423 -0.023809 4.817 -4.7552 0.41044 -5.659 5.7511 -5.6784 -0 0 -0 -0 0 -0 -0 0 -0 0.70438 6.7423 -0.023809 -0.75186 -4.7667 -5.4189 1.2138 5.3873 -1.4384 -0 0 -0 -0 0 -0 -0 0 -0 
0 96.351 0 -0 0 -0 0.67293 6.7017 0.031397 -7.1651 -13.248 0.77305 -7.1651 -13.248 0.77305 -6.0119 -11.123 0.76095 -0 0 -0 94.147 -31.809 52.182 8.6629 -6.6232 12.524 -0 0 -0 -0 0 -0 -42.211 -34.031 -51.466 -8.4217 -1.5159 14.933 -0 0 -0 11.203 18.946 -6.3713 11.203 18.946 -6.3713 0.67293 6.7017 0.031397 4.8214 -4.6845 0.26031 -5.5239 5.4963 -5.6231 -0 0 -0 -0 0 -0 -0 0 -0 0.67293 6.7017 0.031397 -0.71558 -4.7158 -5.5198 1.2317 5.269 -1.4988 -0 0 -0 -0 0 -0 -0 0 -0 
0 96.351 0 -0 0 -0 0.6485 6.6506 0.096666 -7.3879 -13.199 0.71956 -7.3879 -13.199 0.71956 -6.1977 -11.082 0.71926 -0 0 -0 94.178 -31.722 52.139 8.5081 -6.6235 12.812 -0 0 -0 -0 0 -0 -41.473 -33.596 -51.774 -8.3852 -1.5353 15.314 -0 0 -0 11.585 18.822 -6.5885 11.585 18.822 -6.5885 0.6485 6.6506 0.096666 4.8298 -4.6158 0.062651 -5.4066 5.2628 -5.5424 -0 0 -0 -0 0 -0 -0 0 -0 0.6485 6.6506 0.096666 -0.68179 -4.6549 -5.6052 1.2522 5.1573 -1.5829 -0 0 -0 -0 0 -0 -0 0 -0 
0 96.351 0 -0 0 -0 0.62929 6.5833 0.17071 -7.6089 -13.136 0.66062 -7.6089 -13.136 0.66062 -6.3821 -11.03 0.67282 -0 0 -0 94.197 -31.626 52.129 8.35 -6.6012 13.112 -0 0 -0 -0 0 -0 -40.743 -33.188 -52.055 -8.3735 -1.5461 15.689 -0 0 -0 11.953 18.69 -6.8054 11.953 18.69 -6.8054 0.62929 6.5833 0.17071 4.8404 -4.5399 -0.16509 -5.2998 5.0502 -5.4454 -0 0 -0 -0 0 -0 -0 0 -0 0.62929 6.5833 0.17071 -0.64839 -4.5773 -5.6708 1.2756 5.0516 -1.6895 -0 0 -0 -0 0 -0 -0 0 -0 
0 96.351 0 -0 0 -0 0.61338 6.4958 0.2521 -7.8264 -13.059 0.59808 -7.8264 -13.059 0.59808 -6.5633 -10.966 0.62313 -0 0 -0 94.203 -31.525 52.168 8.188 -6.552 13.399 -0 0 -0 -0 0 -0 -40.026 -32.811 -52.294 -8.386 -1.5448 16.035 -0 0 -0 12.306 18.549 -7.0216 12.306 18.549 -7.0216 0.61338 6.4958 0.2521 4.852 -4.4499 -0.40358 -5.1972 4.859 -5.3411 -0 0 -0 -0 0 -0 -0 0 -0 0.61338 6.4958 0.2521 -0.61342 -4.4785 -5.7136 1.3022 4.9519 -1.8154 -0 0 -0 -0 0 -0 -0 0 -0 
0 96.351 0 -0 0 -0 0.59882 6.3865 0.33943 -8.0385 -12.967 0.53357 -8.0385 -12.967 0.53357 -6.7402 -10.889 0.57152 -0 0 -0 94.194 -31.422 52.266 8.0229 -6.4726 13.651 -0 0 -0 -0 0 -0 -39.325 -32.465 -52.482 -8.4181 -1.5288 16.331 -0 0 -0 12.641 18.401 -7.2369 12.641 18.401 -7.2369 0.59882 6.3865 0.33943 4.8643 -4.3421 -0.63361 -5.0936 4.6902 -5.2384 -0 0 -0 -0 0 -0 -0 0 -0 0.59882 6.3865 0.33943 -0.57537 -4.3571 -5.7319 1.3323 4.8586 -1.9575 -0 0 -0 -0 0 -0 -0 0 -0 
0 96.351 0 -0 0 -0 0.58371 6.2561 0.43126 -8.2445 -12.862 0.46855 -8.2445 -12.862 0.46855 -6.912 -10.801 0.5192 -0 0 -0 94.167 -31.32 52.425 7.8567 -6.3613 13.852 -0 0 -0 -0 0 -0 -38.645 -32.147 -52.611 -8.4623 -1.497 16.557 -0 0 -0 12.958 18.244 -7.4513 12.958 18.244 -7.4513 0.58371 6.2561 0.43126 4.878 -4.2163 -0.83776 -4.9859 4.5449 -5.1464 -0 0 -0 -0 0 -0 -0 0 -0 0.58371 6.2561 0.43126 -0.53348 -4.215 -5.726 1.3662 4.7728 -2.1128 -0 0 -0 -0 0 -0 -0 0 -0 
0 96.351 0 -0 0 -0 0.56633 6.1075 0.52603 -8.4435 -12.746 0.4044 -8.4435 -12.746 0.4044 -7.078 -10.705 0.46733 -0 0 -0 94.117 -31.221 52.642 7.6924 -6.2192 13.995 -0 0 -0 -0 0 -0 -37.986 -31.851 -52.681 -8.5102 -1.4493 16.701 -0 0 -0 13.256 18.081 -7.6655 13.256 18.08 -7.6655 0.56633 6.1075 0.52603 4.8942 -4.0747 -1.0017 -4.8731 4.4241 -5.0745 -0 0 -0 -0 0 -0 -0 0 -0 0.56633 6.1075 0.52603 -0.48776 -4.057 -5.6972 1.4047 4.6962 -2.2793 -0 0 -0 -0 0 -0 -0 0 -0 
0 96.351 0 -0 0 -0 0.54507 5.945 0.62192 -8.6356 -12.623 0.34265 -8.6356 -12.623 0.34265 -7.2383 -10.602 0.41724 -0 0 -0 94.038 -31.127 52.907 7.533 -6.0493 14.077 -0 0 -0 -0 0 -0 -37.349 -31.571 -52.696 -8.5541 -1.3875 16.761 -0 0 -0 13.536 17.91 -7.8813 13.536 17.91 -7.8813 0.54507 5.945 0.62192 4.9144 -3.9218 -1.1144 -4.7561 4.3283 -5.032 -0 0 -0 -0 0 -0 -0 0 -0 0.54507 5.945 0.62192 -0.4389 -3.8892 -5.648 1.4487 4.6305 -2.4555 -0 0 -0 -0 0 -0 -0 0 -0 
0 96.351 0 -0 0 -0 0.51843 5.7738 0.71678 -8.8211 -12.496 0.28524 -8.8211 -12.496 0.28524 -7.3932 -10.496 0.37057 -0 0 -0 93.926 -31.044 53.205 7.3816 -5.8569 14.105 -0 0 -0 -0 0 -0 -36.733 -31.294 -52.667 -8.5887 -1.315 16.744 -0 0 -0 13.801 17.734 -8.1016 13.801 17.734 -8.1016 0.51843 5.7738 0.71678 4.9408 -3.7631 -1.1687 -4.6372 4.2576 -5.0277 -0 0 -0 -0 0 -0 -0 0 -0 0.51843 5.7738 0.71678 -0.3879 -3.719 -5.581 1.4995 4.5772 -2.6403 -0 0 -0 -0 0 -0 -0 0 -0 
0 96.351 0 -0 0 -0 0.48503 5.5998 0.80825 -9.0007 -12.372 0.23453 -9.0007 -12.372 0.23453 -7.5433 -10.392 0.3294 -0 0 -0 93.778 -30.977 53.52 7.2405 -5.6484 14.091 -0 0 -0 -0 0 -0 -36.137 -31.009 -52.608 -8.6122 -1.2364 16.667 -0 0 -0 14.055 17.553 -8.3309 14.055 17.553 -8.3309 0.48503 5.5998 0.80825 4.976 -3.605 -1.1608 -4.5197 4.2118 -5.0692 -0 0 -0 -0 0 -0 -0 0 -0 0.48503 5.5998 0.80825 -0.33568 -3.5535 -5.4985 1.5582 4.5372 -2.8331 -0 0 -0 -0 0 -0 -0 0 -0 
0 96.351 0 -0 0 -0 0.44368 5.4285 0.89399 -9.1756 -12.253 0.19326 -9.1756 -12.253 0.19326 -7.6896 -10.293 0.29607 -0 0 -0 93.589 -30.934 53.835 7.1108 -5.4307 14.047 -0 0 -0 -0 0 -0 -35.558 -30.702 -52.533 -8.6253 -1.1574 16.551 -0 0 -0 14.302 17.37 -8.5744 14.302 17.37 -8.5744 0.44368 5.4285 0.89399 5.0232 -3.4535 -1.0901 -4.4076 4.19 -5.1617 -0 0 -0 -0 0 -0 -0 0 -0 0.44368 5.4285 0.89399 -0.28279 -3.3988 -5.4024 1.6259 4.5104 -3.033 -0 0 -0 -0 0 -0 -0 0 -0 
0 96.351 0 -0 0 -0 0.39355 5.2652 0.97204 -9.3473 -12.144 0.16415 -9.3473 -12.144 0.16415 -7.8333 -10.202 0.27294 -0 0 -0 93.36 -30.924 54.133 6.9933 -5.2096 13.989 -0 0 -0 -0 0 -0 -34.994 -30.36 -52.461 -8.6308 -1.0842 16.42 -0 0 -0 14.548 17.186 -8.8381 14.548 17.186 -8.8381 0.39355 5.2652 0.97204 5.0858 -3.3139 -0.95969 -4.3053 4.1905 -5.3072 -0 0 -0 -0 0 -0 -0 0 -0 0.39355 5.2652 0.97204 -0.22907 -3.2591 -5.2942 1.7028 4.4951 -3.2386 -0 0 -0 -0 0 -0 -0 0 -0 
0 96.351 0 -0 0 -0 0.33426 5.1142 1.0409 -9.5174 -12.049 0.14952 -9.5174 -12.049 0.14952 -7.976 -10.122 0.26203 -0 0 -0 93.091 -30.953 54.401 6.8879 -4.9895 13.929 -0 0 -0 -0 0 -0 -34.44 -29.971 -52.404 -8.6316 -1.0221 16.293 -0 0 -0 14.797 17.002 -9.1272 14.797 17.002 -9.1272 0.33426 5.1142 1.0409 5.1667 -3.1902 -0.77521 -4.2166 4.2111 -5.5038 -0 0 -0 -0 0 -0 -0 0 -0 0.33426 5.1142 1.0409 -0.17359 -3.1364 -5.1756 1.7883 4.4884 -3.4472 -0 0 -0 -0 0 -0 -0 0 -0 
0 96.351 0 -0 0 -0 0.2659 4.9787 1.0998 -9.6879 -11.969 0.1509 -9.6879 -11.969 0.1509 -8.1191 -10.055 0.26469 -0 0 -0 92.787 -31.029 54.627 6.7944 -4.7726 13.877 -0 0 -0 -0 0 -0 -33.893 -29.531 -52.373 -8.6299 -0.97562 16.184 -0 0 -0 15.054 16.82 -9.446 15.054 16.82 -9.446 0.2659 4.9787 1.0998 5.2687 -3.0848 -0.54488 -4.1446 4.2486 -5.7453 -0 0 -0 -0 0 -0 -0 0 -0 0.2659 4.9787 1.0998 -0.11451 -3.0306 -5.0492 1.8804 4.4863 -3.6543 -0 0 -0 -0 0 -0 -0 0 -0 
0 96.351 0 -0 0 -0 0.18895 4.861 1.1486 -9.8603 -11.904 0.16866 -9.8603 -11.904 0.16866 -8.264 -10 0.28126 -0 0 -0 92.451 -31.151 54.803 6.7122 -4.5592 13.84 -0 0 -0 -0 0 -0 -33.349 -29.035 -52.377 -8.6258 -0.94686 16.101 -0 0 -0 15.322 16.641 -9.7963 15.322 16.641 -9.7963 0.18895 4.861 1.1486 5.3928 -2.9981 -0.27852 -4.0908 4.299 -6.022 -0 0 -0 -0 0 -0 -0 0 -0 0.18895 4.861 1.1486 -0.049394 -2.9398 -4.9189 1.9762 4.4842 -3.8538 -0 0 -0 -0 0 -0 -0 0 -0 
0 96.351 0 -0 0 -0 0.10413 4.7626 1.1876 -10.036 -11.855 0.20191 -10.036 -11.855 0.20191 -8.4118 -9.9587 0.31102 -0 0 -0 92.091 -31.319 54.924 6.6411 -4.3474 13.825 -0 0 -0 -0 0 -0 -32.806 -28.486 -52.418 -8.6172 -0.93561 16.045 -0 0 -0 15.604 16.466 -10.178 15.604 16.466 -10.178 0.10413 4.7626 1.1876 5.5391 -2.9292 0.01314 -4.0552 4.3579 -6.3217 -0 0 -0 -0 0 -0 -0 0 -0 0.10413 4.7626 1.1876 0.024634 -2.8616 -4.7895 2.0719 4.4779 -4.0384 -0 0 -0 -0 0 -0 -0 0 -0 
